<?xml version="1.0" encoding="UTF-8" standalone="no"?>
<!DOCTYPE svg PUBLIC "-//W3C//DTD SVG 1.1//EN" "http://www.w3.org/Graphics/SVG/1.1/DTD/svg11.dtd">
<svg width="100%" height="100%" viewBox="0 0 1080 1080" version="1.1" xmlns="http://www.w3.org/2000/svg" xmlns:xlink="http://www.w3.org/1999/xlink" xml:space="preserve" xmlns:serif="http://www.serif.com/" style="fill-rule:evenodd;clip-rule:evenodd;stroke-linejoin:round;stroke-miterlimit:2;">
    <g id="Astéroïqde">
        <g id="Comete" transform="matrix(2.05282,0,0,2.05282,41.5026,-1172.06)">
            <path d="M258,700C282.89,700 322.203,706.801 342.183,718.643C359.773,729.07 378.588,748.405 386.277,765.448C395.806,786.568 392,806.846 392,834C392,852.853 377.098,870.801 370.059,887.082C349.484,934.667 313.104,968 258,968C230.266,968 217.489,954.556 196.101,940.102C194.117,938.761 192.127,937.443 190.139,936.141C156.401,914.051 123,896.65 123,853C123,836.329 138.051,800.365 143.625,785.636C153.911,758.452 162.617,731.765 183.83,716.586C202.112,703.505 231.483,700 258,700Z"/>
        </g>
        <path d="M701.047,814.956C783.44,838.814 866.817,842.622 938.991,827.187C739.474,1026.7 435.377,1046.57 260.331,871.526C99.976,711.171 103.191,442.518 258.241,245.172C272.446,227.092 287.925,209.611 304.67,192.866C290.117,260.913 292.671,338.918 312.993,416.627C311.465,420.707 309.933,424.793 308.385,428.884C295.58,462.723 261,545.351 261,583.652C261,683.938 337.738,723.916 415.251,774.667C419.819,777.659 424.391,780.688 428.949,783.768C478.088,816.978 507.444,847.864 571.162,847.864C620.979,847.864 664.136,836.006 701.047,814.956Z" style="fill:rgb(187,207,255);"/>
    </g>
</svg>
