<?xml version="1.0" encoding="UTF-8" standalone="no"?>
<!DOCTYPE svg PUBLIC "-//W3C//DTD SVG 1.1//EN" "http://www.w3.org/Graphics/SVG/1.1/DTD/svg11.dtd">
<svg width="100%" height="100%" viewBox="0 0 1080 1080" version="1.1" xmlns="http://www.w3.org/2000/svg" xmlns:xlink="http://www.w3.org/1999/xlink" xml:space="preserve" xmlns:serif="http://www.serif.com/" style="fill-rule:evenodd;clip-rule:evenodd;stroke-linejoin:round;stroke-miterlimit:2;">
    <path id="Comete" d="M232,582C299.089,535 974.879,35.548 1011,66.271C1055.65,104.253 592,746.842 540,810C467.383,898.199 372.246,1041 258,1041C143.754,1041 51,948.246 51,834C51,719.754 138.431,647.552 232,582ZM258.024,674.169C287.712,674.169 334.604,682.28 358.435,696.406C379.416,708.842 401.858,731.904 411.029,752.233C422.395,777.424 417.855,801.611 417.855,834C417.855,856.487 400.081,877.896 391.685,897.315C367.143,954.073 323.75,993.831 258.024,993.831C224.944,993.831 209.704,977.796 184.193,960.555C141.675,931.82 97,911.796 97,856.663C97,836.778 114.952,793.881 121.6,776.313C133.87,743.889 144.255,712.057 169.556,693.952C191.362,678.349 226.395,674.169 258.024,674.169ZM258,700C282.89,700 322.203,706.801 342.183,718.643C359.773,729.07 378.588,748.405 386.277,765.448C395.806,786.568 392,806.846 392,834C392,852.853 377.098,870.801 370.059,887.082C349.484,934.667 313.104,968 258,968C230.266,968 217.489,954.556 196.101,940.102C194.117,938.761 192.127,937.443 190.139,936.141C156.401,914.051 123,896.65 123,853C123,836.329 138.051,800.365 143.625,785.636C153.911,758.452 162.617,731.765 183.83,716.586C202.112,703.505 231.483,700 258,700ZM876.788,406.507C884.034,394.056 955.113,264.459 963.135,266.758C973.052,269.601 946.342,406.708 942.691,420.653C937.593,440.127 932.918,470.02 914.692,478.362C896.466,486.703 874.847,478.572 866.445,460.215C858.043,441.857 866.681,423.872 876.788,406.507ZM348.086,315.397C370.694,310.683 601.356,256.438 607.217,268.463C614.462,283.33 422.423,398.506 401.889,409.107C373.214,423.911 332.576,450.39 303.093,437.613C273.609,424.836 260.12,390.353 272.989,360.657C285.859,330.961 316.555,321.971 348.086,315.397Z" style="fill:rgb(187,207,255);"/>
    <clipPath id="_clip1">
        <path id="Comete1" serif:id="Comete" d="M232,582C299.089,535 974.879,35.548 1011,66.271C1055.65,104.253 592,746.842 540,810C467.383,898.199 372.246,1041 258,1041C143.754,1041 51,948.246 51,834C51,719.754 138.431,647.552 232,582ZM258.024,674.169C287.712,674.169 334.604,682.28 358.435,696.406C379.416,708.842 401.858,731.904 411.029,752.233C422.395,777.424 417.855,801.611 417.855,834C417.855,856.487 400.081,877.896 391.685,897.315C367.143,954.073 323.75,993.831 258.024,993.831C224.944,993.831 209.704,977.796 184.193,960.555C141.675,931.82 97,911.796 97,856.663C97,836.778 114.952,793.881 121.6,776.313C133.87,743.889 144.255,712.057 169.556,693.952C191.362,678.349 226.395,674.169 258.024,674.169ZM258,700C282.89,700 322.203,706.801 342.183,718.643C359.773,729.07 378.588,748.405 386.277,765.448C395.806,786.568 392,806.846 392,834C392,852.853 377.098,870.801 370.059,887.082C349.484,934.667 313.104,968 258,968C230.266,968 217.489,954.556 196.101,940.102C194.117,938.761 192.127,937.443 190.139,936.141C156.401,914.051 123,896.65 123,853C123,836.329 138.051,800.365 143.625,785.636C153.911,758.452 162.617,731.765 183.83,716.586C202.112,703.505 231.483,700 258,700ZM876.788,406.507C884.034,394.056 955.113,264.459 963.135,266.758C973.052,269.601 946.342,406.708 942.691,420.653C937.593,440.127 932.918,470.02 914.692,478.362C896.466,486.703 874.847,478.572 866.445,460.215C858.043,441.857 866.681,423.872 876.788,406.507ZM348.086,315.397C370.694,310.683 601.356,256.438 607.217,268.463C614.462,283.33 422.423,398.506 401.889,409.107C373.214,423.911 332.576,450.39 303.093,437.613C273.609,424.836 260.12,390.353 272.989,360.657C285.859,330.961 316.555,321.971 348.086,315.397Z"/>
    </clipPath>
    <g clip-path="url(#_clip1)">
        <path id="Comete2" serif:id="Comete" d="M258,700C282.89,700 322.203,706.801 342.183,718.643C359.773,729.07 378.588,748.405 386.277,765.448C395.806,786.568 392,806.846 392,834C392,852.853 377.098,870.801 370.059,887.082C349.484,934.667 313.104,968 258,968C230.266,968 217.489,954.556 196.101,940.102C194.117,938.761 192.127,937.443 190.139,936.141C156.401,914.051 123,896.65 123,853C123,836.329 138.051,800.365 143.625,785.636C153.911,758.452 162.617,731.765 183.83,716.586C202.112,703.505 231.483,700 258,700Z"/>
    </g>
</svg>
